<svg width="198" height="198" viewBox="0 0 198 198" fill="none" xmlns="http://www.w3.org/2000/svg">
<g filter="url(#filter0_di_129_1753)">
<g clip-path="url(#clip0_129_1753)">
<rect x="24" y="16" width="150" height="150" rx="39" fill="#E600E6"/>
<path d="M113.333 120V113.333C113.333 105.97 107.363 100 99.9993 100H79.9993C72.6356 100 66.666 105.97 66.666 113.333V120M113.333 60.4268C119.213 61.9513 123.32 67.2583 123.32 73.3334C123.32 79.4085 119.213 84.7155 113.333 86.2401M133.333 120V113.333C133.328 107.257 129.216 101.952 123.333 100.433" stroke="white" stroke-width="6.66667" stroke-linecap="round" stroke-linejoin="round"/>
<path d="M76.666 73.3333C76.666 80.6922 82.6405 86.6667 89.9993 86.6667C97.3582 86.6667 103.333 80.6922 103.333 73.3333C103.333 65.9745 97.3582 60 89.9993 60C82.6405 60 76.666 65.9745 76.666 73.3333V73.3333" stroke="white" stroke-width="6.66667" stroke-linecap="round" stroke-linejoin="round"/>
<rect x="44" y="36" width="150" height="150" rx="75" fill="white" fill-opacity="0.1"/>
<rect x="-16" y="-24" width="120" height="120" rx="60" fill="white" fill-opacity="0.05"/>
</g>
</g>
<defs>
<filter id="filter0_di_129_1753" x="0" y="0" width="198" height="198" filterUnits="userSpaceOnUse" color-interpolation-filters="sRGB">
<feFlood flood-opacity="0" result="BackgroundImageFix"/>
<feColorMatrix in="SourceAlpha" type="matrix" values="0 0 0 0 0 0 0 0 0 0 0 0 0 0 0 0 0 0 127 0" result="hardAlpha"/>
<feOffset dy="8"/>
<feGaussianBlur stdDeviation="12"/>
<feComposite in2="hardAlpha" operator="out"/>
<feColorMatrix type="matrix" values="0 0 0 0 0.901961 0 0 0 0 0 0 0 0 0 0.901961 0 0 0 0.2 0"/>
<feBlend mode="normal" in2="BackgroundImageFix" result="effect1_dropShadow_129_1753"/>
<feBlend mode="normal" in="SourceGraphic" in2="effect1_dropShadow_129_1753" result="shape"/>
<feColorMatrix in="SourceAlpha" type="matrix" values="0 0 0 0 0 0 0 0 0 0 0 0 0 0 0 0 0 0 127 0" result="hardAlpha"/>
<feOffset dy="8"/>
<feGaussianBlur stdDeviation="8"/>
<feComposite in2="hardAlpha" operator="arithmetic" k2="-1" k3="1"/>
<feColorMatrix type="matrix" values="0 0 0 0 0 0 0 0 0 0 0 0 0 0 0 0 0 0 0.1 0"/>
<feBlend mode="normal" in2="shape" result="effect2_innerShadow_129_1753"/>
</filter>
<clipPath id="clip0_129_1753">
<rect x="24" y="16" width="150" height="150" rx="39" fill="white"/>
</clipPath>
</defs>
</svg>
