<svg width="348" height="348" viewBox="0 0 348 348" fill="none" xmlns="http://www.w3.org/2000/svg">
<g filter="url(#filter0_di_129_1641)">
<g clip-path="url(#clip0_129_1641)">
<rect x="24" y="16" width="300" height="300" rx="64" fill="#E600E6"/>
<path d="M187.333 166V159.333C187.333 151.97 181.363 146 173.999 146H153.999C146.636 146 140.666 151.97 140.666 159.333V166M187.333 106.427C193.213 107.951 197.32 113.258 197.32 119.333C197.32 125.409 193.213 130.716 187.333 132.24M207.333 166V159.333C207.328 153.257 203.216 147.952 197.333 146.433" stroke="white" stroke-width="6.66667" stroke-linecap="round" stroke-linejoin="round"/>
<path d="M150.666 119.333C150.666 126.692 156.64 132.667 163.999 132.667C171.358 132.667 177.333 126.692 177.333 119.333C177.333 111.974 171.358 106 163.999 106C156.64 106 150.666 111.974 150.666 119.333V119.333" stroke="white" stroke-width="6.66667" stroke-linecap="round" stroke-linejoin="round"/>
<g filter="url(#filter1_d_129_1641)">
<path d="M97.9448 194.091V229H89.5073V194.091H97.9448ZM104.242 229V194.091H118.662C121.276 194.091 123.531 194.602 125.429 195.625C127.338 196.636 128.81 198.051 129.844 199.869C130.878 201.676 131.395 203.778 131.395 206.176C131.395 208.585 130.867 210.693 129.81 212.5C128.764 214.295 127.27 215.687 125.327 216.676C123.384 217.665 121.077 218.159 118.406 218.159H109.509V211.511H116.838C118.111 211.511 119.173 211.29 120.026 210.847C120.889 210.403 121.543 209.784 121.986 208.989C122.429 208.182 122.651 207.244 122.651 206.176C122.651 205.097 122.429 204.165 121.986 203.381C121.543 202.585 120.889 201.972 120.026 201.54C119.162 201.108 118.1 200.892 116.838 200.892H112.679V229H104.242Z" fill="black"/>
<path d="M179.554 206.739H171.031C170.918 205.864 170.685 205.074 170.333 204.369C169.98 203.665 169.514 203.062 168.935 202.562C168.355 202.062 167.668 201.682 166.872 201.42C166.088 201.148 165.219 201.011 164.264 201.011C162.571 201.011 161.111 201.426 159.884 202.256C158.668 203.085 157.73 204.284 157.071 205.852C156.423 207.42 156.1 209.318 156.1 211.545C156.1 213.864 156.429 215.807 157.088 217.375C157.759 218.932 158.696 220.108 159.901 220.903C161.117 221.687 162.554 222.08 164.213 222.08C165.145 222.08 165.992 221.96 166.753 221.722C167.526 221.483 168.202 221.136 168.781 220.682C169.372 220.216 169.855 219.653 170.23 218.994C170.617 218.324 170.884 217.568 171.031 216.727L179.554 216.778C179.406 218.324 178.958 219.847 178.208 221.347C177.469 222.847 176.452 224.216 175.156 225.455C173.861 226.682 172.281 227.659 170.418 228.386C168.566 229.114 166.441 229.477 164.043 229.477C160.884 229.477 158.054 228.784 155.554 227.398C153.066 226 151.1 223.966 149.656 221.295C148.213 218.625 147.492 215.375 147.492 211.545C147.492 207.705 148.225 204.449 149.691 201.778C151.156 199.108 153.139 197.08 155.639 195.693C158.139 194.307 160.941 193.614 164.043 193.614C166.156 193.614 168.111 193.909 169.906 194.5C171.702 195.08 173.281 195.932 174.645 197.057C176.009 198.17 177.117 199.54 177.969 201.165C178.821 202.79 179.35 204.648 179.554 206.739ZM185.382 229V194.091H199.803C202.416 194.091 204.672 194.562 206.57 195.506C208.479 196.437 209.95 197.778 210.985 199.528C212.019 201.267 212.536 203.33 212.536 205.716C212.536 208.136 212.007 210.193 210.95 211.886C209.894 213.568 208.394 214.852 206.45 215.739C204.507 216.614 202.206 217.051 199.547 217.051H190.428V210.403H197.979C199.252 210.403 200.314 210.239 201.166 209.909C202.03 209.568 202.683 209.057 203.127 208.375C203.57 207.682 203.791 206.795 203.791 205.716C203.791 204.636 203.57 203.744 203.127 203.04C202.683 202.324 202.03 201.79 201.166 201.438C200.303 201.074 199.24 200.892 197.979 200.892H193.82V229H185.382ZM205.036 213.045L213.729 229H204.524L196.002 213.045H205.036ZM218.164 194.091H228.612L237.476 215.705H237.885L246.749 194.091H257.198V229H248.982V207.557H248.692L240.306 228.778H235.056L226.669 207.438H226.379V229H218.164V194.091Z" fill="white"/>
</g>
<rect x="194" y="186" width="150" height="150" rx="75" fill="white" fill-opacity="0.1"/>
<rect x="-16" y="-24" width="120" height="120" rx="60" fill="white" fill-opacity="0.05"/>
</g>
</g>
<defs>
<filter id="filter0_di_129_1641" x="0" y="0" width="348" height="348" filterUnits="userSpaceOnUse" color-interpolation-filters="sRGB">
<feFlood flood-opacity="0" result="BackgroundImageFix"/>
<feColorMatrix in="SourceAlpha" type="matrix" values="0 0 0 0 0 0 0 0 0 0 0 0 0 0 0 0 0 0 127 0" result="hardAlpha"/>
<feOffset dy="8"/>
<feGaussianBlur stdDeviation="12"/>
<feComposite in2="hardAlpha" operator="out"/>
<feColorMatrix type="matrix" values="0 0 0 0 0.901961 0 0 0 0 0 0 0 0 0 0.901961 0 0 0 0.2 0"/>
<feBlend mode="normal" in2="BackgroundImageFix" result="effect1_dropShadow_129_1641"/>
<feBlend mode="normal" in="SourceGraphic" in2="effect1_dropShadow_129_1641" result="shape"/>
<feColorMatrix in="SourceAlpha" type="matrix" values="0 0 0 0 0 0 0 0 0 0 0 0 0 0 0 0 0 0 127 0" result="hardAlpha"/>
<feOffset dy="8"/>
<feGaussianBlur stdDeviation="8"/>
<feComposite in2="hardAlpha" operator="arithmetic" k2="-1" k3="1"/>
<feColorMatrix type="matrix" values="0 0 0 0 0 0 0 0 0 0 0 0 0 0 0 0 0 0 0.1 0"/>
<feBlend mode="normal" in2="shape" result="effect2_innerShadow_129_1641"/>
</filter>
<filter id="filter1_d_129_1641" x="85.5078" y="191.614" width="175.689" height="43.8633" filterUnits="userSpaceOnUse" color-interpolation-filters="sRGB">
<feFlood flood-opacity="0" result="BackgroundImageFix"/>
<feColorMatrix in="SourceAlpha" type="matrix" values="0 0 0 0 0 0 0 0 0 0 0 0 0 0 0 0 0 0 127 0" result="hardAlpha"/>
<feOffset dy="2"/>
<feGaussianBlur stdDeviation="2"/>
<feComposite in2="hardAlpha" operator="out"/>
<feColorMatrix type="matrix" values="0 0 0 0 0 0 0 0 0 0 0 0 0 0 0 0 0 0 0.1 0"/>
<feBlend mode="normal" in2="BackgroundImageFix" result="effect1_dropShadow_129_1641"/>
<feBlend mode="normal" in="SourceGraphic" in2="effect1_dropShadow_129_1641" result="shape"/>
</filter>
<clipPath id="clip0_129_1641">
<rect x="24" y="16" width="300" height="300" rx="64" fill="white"/>
</clipPath>
</defs>
</svg>
