<?xml version="1.0" encoding="UTF-8"?>
<svg version="1.1" xmlns="http://www.w3.org/2000/svg" width="225" height="225">
<path d="M0 0 C74.25 0 148.5 0 225 0 C225 74.25 225 148.5 225 225 C150.75 225 76.5 225 0 225 C0 150.75 0 76.5 0 0 Z " fill="#FDFDFD" transform="translate(0,0)"/>
<path d="M0 0 C1.39015245 -0.00378621 2.78030112 -0.00928875 4.17044067 -0.01637268 C7.93499222 -0.03030544 11.69908561 -0.0191732 15.4636116 -0.00266147 C19.40860581 0.0112163 23.35357416 0.00472585 27.29858398 0.00120544 C33.92276367 -0.00149453 40.54676193 0.01196053 47.17089844 0.03515625 C54.82245671 0.06176473 62.47371172 0.06351233 70.12530041 0.05176789 C77.49471594 0.04097766 84.86402209 0.04718692 92.23342896 0.06132317 C95.36567784 0.0670722 98.4978464 0.06700883 101.63009644 0.06225777 C105.32053402 0.05747506 109.01064078 0.06764279 112.70101547 0.08921242 C114.69650442 0.09740456 116.69203677 0.09094191 118.68753052 0.08401489 C120.47911087 0.09887184 120.47911087 0.09887184 122.30688477 0.11402893 C123.34071793 0.11645883 124.37455109 0.11888872 125.43971252 0.12139225 C130.05048084 0.71800224 133.33757026 2.51666143 136.69140625 5.68920898 C138.83406282 9.26030327 139.68241889 12.38152496 139.37890625 16.50170898 C138.11372159 21.08800339 136.44441467 23.69436691 132.62998962 26.58457947 C127.07379232 29.65247294 120.94853481 29.06664996 114.76782227 29.03515625 C113.39061563 29.04222195 112.01341676 29.0509697 110.63623047 29.06126404 C106.9108919 29.08369571 103.18597943 29.08083305 99.46059918 29.07194257 C96.3443713 29.06681888 93.22822252 29.07413643 90.11200279 29.08141464 C82.757459 29.09839399 75.4031228 29.09486787 68.04858398 29.078125 C60.47474357 29.06120525 52.90147958 29.07704022 45.32770211 29.10934788 C38.81194769 29.13608382 32.29637227 29.14330904 25.78056854 29.1348328 C21.89472052 29.12991521 18.00921918 29.13205532 14.12341499 29.15262032 C10.4680926 29.17104088 6.81359617 29.16494252 3.15831757 29.14042091 C1.18705449 29.13306501 -0.78425299 29.15021909 -2.75544739 29.16824341 C-9.89195079 29.09218277 -15.23043856 28.48712255 -20.62109375 23.50170898 C-23.62045321 19.19012976 -24.27114346 15.70210669 -23.62109375 10.50170898 C-18.16873457 -0.19330325 -10.93500417 -0.08152276 0 0 Z " fill="#AA12A9" transform="translate(54.62109375,150.498291015625)"/>
<path d="M0 0 C1.36101585 -0.00744736 1.36101585 -0.00744736 2.74952698 -0.01504517 C5.76702622 -0.02971191 8.78447284 -0.03647749 11.80200195 -0.04199219 C13.89370221 -0.04774147 15.98540245 -0.05349923 18.07710266 -0.05926514 C22.47132616 -0.06978902 26.86553129 -0.07562208 31.25976562 -0.07910156 C36.88780767 -0.08457858 42.51560683 -0.10858389 48.14357281 -0.13707352 C52.46817224 -0.15571122 56.79271342 -0.16090618 61.11734962 -0.16243744 C63.19176367 -0.1654637 65.26617669 -0.1734913 67.34055138 -0.18662262 C70.24675205 -0.20370088 73.15236307 -0.20179802 76.05859375 -0.1953125 C76.91442047 -0.20452728 77.77024719 -0.21374207 78.65200806 -0.22323608 C84.81828587 -0.18018793 89.0519309 0.98465091 93.6652832 5.34863281 C95.80482859 8.91454178 96.67060075 12.04463892 96.3527832 16.16113281 C95.1166993 20.23293862 93.65066446 23.21478094 90.17378235 25.74995422 C86.80368008 27.43581655 84.57564728 27.5235961 80.81835938 27.50170898 C79.51738815 27.50148239 78.21641693 27.5012558 76.87602234 27.50102234 C75.46592867 27.48570465 74.05583855 27.4700567 72.64575195 27.45410156 C71.19558654 27.4485022 69.74541544 27.44423371 68.29524231 27.4412384 C64.48931041 27.42981628 60.68372518 27.40037226 56.87792969 27.36712646 C52.99003793 27.33636847 49.10208984 27.32272087 45.21411133 27.30761719 C37.59351105 27.27549961 29.97319581 27.22433568 22.3527832 27.16113281 C22.6827832 24.85113281 23.0127832 22.54113281 23.3527832 20.16113281 C24.4871582 20.01675781 25.6215332 19.87238281 26.7902832 19.72363281 C30.16055521 19.54941803 30.16055521 19.54941803 31.3527832 18.16113281 C31.82493372 12.91606696 31.82493372 12.91606696 30.2277832 8.09863281 C27.43480763 6.70214502 25.35026134 7.54940258 22.3527832 8.16113281 C19.9777832 7.72363281 19.9777832 7.72363281 18.3527832 7.16113281 C18.3527832 9.47113281 18.3527832 11.78113281 18.3527832 14.16113281 C17.3627832 14.65613281 17.3627832 14.65613281 16.3527832 15.16113281 C16.0846582 14.21238281 15.8165332 13.26363281 15.5402832 12.28613281 C14.60291733 8.90846008 14.60291733 8.90846008 11.3527832 7.16113281 C7.54611923 7.24212566 5.8649505 7.69049259 3.0402832 10.28613281 C1.07715215 13.63072646 0.65388457 16.32209036 0.3527832 20.16113281 C0.0227832 20.16113281 -0.3072168 20.16113281 -0.6472168 20.16113281 C-0.9772168 15.87113281 -1.3072168 11.58113281 -1.6472168 7.16113281 C-4.2872168 7.49113281 -6.9272168 7.82113281 -9.6472168 8.16113281 C-9.68963403 5.82818506 -9.68814617 3.49410714 -9.6472168 1.16113281 C-7.54788784 -0.93819614 -2.89928919 0.00374272 0 0 Z " fill="#A706A6" transform="translate(97.647216796875,150.8388671875)"/>
<path d="M0 0 C5.09731984 2.49868619 8.08431693 5.71572815 10 11 C10.79802163 17.28442037 9.64396404 21.78577514 6 27 C2.43213912 30.26204423 -1.1153386 30.52636807 -5.78515625 30.34765625 C-9.33943214 29.78975404 -11.3595828 28.38894889 -14 26 C-17.33886314 21.21429617 -17.7410699 16.65446488 -17 11 C-14.06234889 2.80549953 -8.49328378 -0.70777365 0 0 Z " fill="#F6F6F6" transform="translate(178,93)"/>
<path d="M0 0 C2.97 0 5.94 0 9 0 C9 14.85 9 29.7 9 45 C6.03 45 3.06 45 0 45 C0 30.15 0 15.3 0 0 Z " fill="#080808" transform="translate(132,87)"/>
<path d="M0 0 C16.17 0 32.34 0 49 0 C49 2.31 49 4.62 49 7 C33.82 7 18.64 7 3 7 C2.01 4.69 1.02 2.38 0 0 Z " fill="#FCFAFC" transform="translate(59,82)"/>
<path d="M0 0 C9.57 0 19.14 0 29 0 C29.33 2.64 29.66 5.28 30 8 C30.66 8.99 31.32 9.98 32 11 C20.78 11 9.56 11 -2 11 C-1.34 9.35 -0.68 7.7 0 6 C0 4.02 0 2.04 0 0 Z " fill="#F9F3F9" transform="translate(67,119)"/>
<path d="M0 0 C13.86 0 27.72 0 42 0 C40.69754024 5.20983905 40.69754024 5.20983905 38 7 C35.30781859 7.32246184 32.85092744 7.46801723 30.15625 7.46875 C29.39074829 7.47636353 28.62524658 7.48397705 27.83654785 7.49182129 C26.21935283 7.50261852 24.60208809 7.50547689 22.98486328 7.50097656 C20.5082615 7.50000325 18.03474872 7.54164135 15.55859375 7.5859375 C13.98698563 7.59114389 12.41536674 7.5938327 10.84375 7.59375 C10.10306274 7.61014526 9.36237549 7.62654053 8.59924316 7.64343262 C6.50585938 7.61523438 6.50585938 7.61523438 3 7 C1.00370355 4.58054356 0 3.15720867 0 0 Z " fill="#F9F3F9" transform="translate(66,94)"/>
<path d="M0 0 C2.00679893 3.01019839 1.68144301 5.36182123 1.25 8.875 C-0.4375 11.375 -0.4375 11.375 -2.75 12.875 C-5.5 12.625 -5.5 12.625 -7.75 11.875 C-8.08 13.855 -8.41 15.835 -8.75 17.875 C-10.07 17.875 -11.39 17.875 -12.75 17.875 C-12.75 11.605 -12.75 5.335 -12.75 -1.125 C-3.75 -2.41071429 -3.75 -2.41071429 0 0 Z " fill="#F1E2F1" transform="translate(65.75,159.125)"/>
<path d="M0 0 C2.51009827 3.76514741 2.75618473 6.5735528 2 11 C0.25 13 0.25 13 -2 14 C-3.32 14 -4.64 14 -6 14 C-6.33 15.65 -6.66 17.3 -7 19 C-8.32 19 -9.64 19 -11 19 C-11 12.73 -11 6.46 -11 0 C-3.66666667 -1.22222222 -3.66666667 -1.22222222 0 0 Z " fill="#F1E0F1" transform="translate(128,158)"/>
<path d="M0 0 C3.6813562 0.00540076 7.36259261 0.00000456 11.04394531 -0.00634766 C13.40592475 -0.00568748 15.76790411 -0.00440758 18.12988281 -0.00244141 C19.21958374 -0.00446564 20.30928467 -0.00648987 21.43200684 -0.00857544 C27.10384401 0.00880138 32.55144347 0.28115925 38.16113281 1.13037109 C38.16113281 1.79037109 38.16113281 2.45037109 38.16113281 3.13037109 C12.42113281 3.13037109 -13.31886719 3.13037109 -39.83886719 3.13037109 C-39.83886719 2.47037109 -39.83886719 1.81037109 -39.83886719 1.13037109 C-26.56361145 0.00704086 -13.3152818 -0.02329726 0 0 Z " fill="#080008" transform="translate(78.8388671875,129.86962890625)"/>
<path d="M0 0 C4.36689189 1.42398649 4.36689189 1.42398649 5.875 3.9375 C6.37530235 7.86844707 6.4746142 10.0380787 4.25 13.375 C1.15814769 15.40911336 -0.48867425 15.54355429 -4.125 14.9375 C-6.5 13.375 -6.5 13.375 -8.125 10.9375 C-8.6875 7.4375 -8.6875 7.4375 -8.125 3.9375 C-5.45043116 0.79094842 -4.15592269 -0.08311845 0 0 Z " fill="#F5E9F5" transform="translate(108.125,157.0625)"/>
<path d="M0 0 C2.5 2.125 2.5 2.125 4 5 C3.936318 8.18409977 3.51040601 10.14932332 1.875 12.875 C-1.20515368 14.72309221 -3.50442383 14.49060718 -7 14 C-9.69500656 11.58140437 -10.80636871 9.99236035 -11.5 6.4375 C-10.20671315 0.13272659 -5.8617679 -0.94206984 0 0 Z " fill="#050505" transform="translate(140,52)"/>
<path d="M0 0 C0.66 0 1.32 0 2 0 C4.03993514 4.92984325 5.40652968 8.57960425 5 14 C3.68 14 2.36 14 1 14 C1 14.99 1 15.98 1 17 C2.32 17.33 3.64 17.66 5 18 C-0.28 18 -5.56 18 -11 18 C-10.67 15.69 -10.34 13.38 -10 11 C-8.865625 10.855625 -7.73125 10.71125 -6.5625 10.5625 C-3.19222799 10.38828522 -3.19222799 10.38828522 -2 9 C-1.79395915 7.67218122 -1.6337041 6.33704105 -1.5 5 C-1.11111111 1.11111111 -1.11111111 1.11111111 0 0 Z " fill="#A708A6" transform="translate(131,160)"/>
<path d="M0 0 C0.99 0 1.98 0 3 0 C3.33 1.98 3.66 3.96 4 6 C4.763125 5.773125 5.52625 5.54625 6.3125 5.3125 C9 5 9 5 10.65625 6.09375 C12.58030542 8.82322396 12.29389039 10.88939788 12.1875 14.1875 C12.16042969 15.27417969 12.13335937 16.36085937 12.10546875 17.48046875 C12.07066406 18.31191406 12.03585938 19.14335937 12 20 C10.68 20 9.36 20 8 20 C8 16.37 8 12.74 8 9 C6.68 9.33 5.36 9.66 4 10 C3.67 12.97 3.34 15.94 3 19 C2.01 19 1.02 19 0 19 C0 12.73 0 6.46 0 0 Z " fill="#F0DEF0" transform="translate(85,152)"/>
<path d="M0 0 C1.32 0 2.64 0 4 0 C4.66 1.98 5.32 3.96 6 6 C8.10232344 3.1315587 8.10232344 3.1315587 9 0 C10.32 0 11.64 0 13 0 C12.31471486 4.14286017 11.02109557 7.84113813 9.5 11.75 C9.0565625 12.89984375 8.613125 14.0496875 8.15625 15.234375 C7 18 7 18 6 19 C4.00041636 19.04080783 1.99954746 19.04254356 0 19 C0 18.01 0 17.02 0 16 C1.32 16 2.64 16 4 16 C3.71125 14.845 3.4225 13.69 3.125 12.5 C2.08333333 8.33333333 1.04166667 4.16666667 0 0 Z " fill="#F6EDF6" transform="translate(132,158)"/>
<path d="M0 0 C0.66 0.99 1.32 1.98 2 3 C-0.64 2.67 -3.28 2.34 -6 2 C-4.37633534 5.24732932 -1.24612161 5.70155136 2 7 C2.1875 9.375 2.1875 9.375 2 12 C-1.46998729 14.31332486 -2.92509248 14.33957563 -7 14 C-7.99 13.34 -8.98 12.68 -10 12 C-10 11.01 -10 10.02 -10 9 C-7.33333333 9.66666667 -4.66666667 10.33333333 -2 11 C-2 10.34 -2 9.68 -2 9 C-4.31 8.34 -6.62 7.68 -9 7 C-10.31236443 2.5856833 -10.31236443 2.5856833 -9 0.125 C-5.81046546 -1.66911318 -3.43890016 -0.8753564 0 0 Z " fill="#F4E7F4" transform="translate(79,158)"/>
<path d="M0 0 C1.75 1.125 1.75 1.125 3 3 C3.50815187 6.9926218 3.59038159 9.12536061 1.3125 12.5 C-1 14 -1 14 -3.75 13.75 C-4.4925 13.5025 -5.235 13.255 -6 13 C-5 11 -5 11 -2 10 C-2 8.02 -2 6.04 -2 4 C-3.98 3.34 -5.96 2.68 -8 2 C-6.18389607 -1.63220786 -3.36627591 -1.26235347 0 0 Z " fill="#F5EAF5" transform="translate(64,158)"/>
<path d="M0 0 C1.98 0 3.96 0 6 0 C5.67 0.99 5.34 1.98 5 3 C4.93259135 4.56118428 4.91485544 6.1250252 4.9375 7.6875 C4.94652344 8.49574219 4.95554687 9.30398437 4.96484375 10.13671875 C4.97644531 10.75160156 4.98804687 11.36648437 5 12 C4.34 12 3.68 12 3 12 C3 14.31 3 16.62 3 19 C2.01 19 1.02 19 0 19 C0 12.73 0 6.46 0 0 Z " fill="#FAF4FA" transform="translate(117,158)"/>
<path d="M0 0 C0.99 0 1.98 0 3 0 C3.8931507 6.58183362 3.95494281 12.42150508 3 19 C2.01 19 1.02 19 0 19 C0 12.73 0 6.46 0 0 Z " fill="#FCF8FC" transform="translate(85,152)"/>
<path d="M0 0 C2.6875 -0.5 2.6875 -0.5 6 0 C8.08132026 2.45240837 9.55490096 5.1353789 11 8 C10.01 8.495 10.01 8.495 9 9 C8.67 9.66 8.34 10.32 8 11 C7.67 10.01 7.34 9.02 7 8 C6.21625 7.9175 5.4325 7.835 4.625 7.75 C2 7 2 7 0.6875 5.125 C0 3 0 3 0 0 Z " fill="#F4E6F4" transform="translate(53,94)"/>
<path d="M0 0 C1.32 0 2.64 0 4 0 C4 4.62 4 9.24 4 14 C2.68 14 1.36 14 0 14 C0 9.38 0 4.76 0 0 Z " fill="#F4E7F4" transform="translate(46,158)"/>
<path d="M0 0 C1.64574566 -0.02688151 3.29161413 -0.04634123 4.9375 -0.0625 C5.85402344 -0.07410156 6.77054688 -0.08570313 7.71484375 -0.09765625 C10 0 10 0 11 1 C11.04080783 2.99958364 11.04254356 5.00045254 11 7 C10.34 7 9.68 7 9 7 C9 5.35 9 3.7 9 2 C8.01 2 7.02 2 6 2 C6 3.98 6 5.96 6 8 C5.34 8 4.68 8 4 8 C4 6.02 4 4.04 4 2 C3.34 2 2.68 2 2 2 C2 3.65 2 5.3 2 7 C1.34 7 0.68 7 0 7 C0 4.69 0 2.38 0 0 Z " fill="#F1DFF0" transform="translate(168,164)"/>
<path d="M0 0 C2.5 0.125 2.5 0.125 3.5 1.125 C3.6875 3.5625 3.6875 3.5625 3.5 6.125 C2.84 6.785 2.18 7.445 1.5 8.125 C-2.03571429 7.58928571 -2.03571429 7.58928571 -3.5 6.125 C-3.625 3.625 -3.625 3.625 -3.5 1.125 C-2.5 0.125 -2.5 0.125 0 0 Z " fill="#DFAFDF" transform="translate(162.5,163.875)"/>
<path d="M0 0 C1.32 0.66 2.64 1.32 4 2 C4 3.98 4 5.96 4 8 C2.125 8.625 2.125 8.625 0 9 C-2 7 -2 7 -2.25 4.5 C-2 2 -2 2 0 0 Z " fill="#AA16A9" transform="translate(59,160)"/>
<path d="M0 0 C1.67542976 0.28604898 3.34385343 0.61781233 5 1 C5 2.98 5 4.96 5 7 C3.125 7.625 3.125 7.625 1 8 C-1 6 -1 6 -1.1875 3.4375 C-1 1 -1 1 0 0 Z " fill="#A608A5" transform="translate(105,161)"/>
<path d="M0 0 C2.0625 0.4375 2.0625 0.4375 4 1 C4 3.31 4 5.62 4 8 C2.0625 8.5625 2.0625 8.5625 0 9 C-1 8 -1 8 -1.125 4.5 C-1 1 -1 1 0 0 Z " fill="#A913A8" transform="translate(122,160)"/>
<path d="M0 0 C1.65 0 3.3 0 5 0 C5.625 1.875 5.625 1.875 6 4 C5.34 4.66 4.68 5.32 4 6 C1.375 5.625 1.375 5.625 -1 5 C-0.67 3.35 -0.34 1.7 0 0 Z " fill="#F4E7F4" transform="translate(57,120)"/>
<path d="M0 0 C1.67542976 0.28604898 3.34385343 0.61781233 5 1 C5 2.32 5 3.64 5 5 C3.35 5.33 1.7 5.66 0 6 C-0.38218767 4.34385343 -0.71395102 2.67542976 -1 1 C-0.67 0.67 -0.34 0.34 0 0 Z " fill="#F7EFF7" transform="translate(102,120)"/>
<path d="M0 0 C1.67542976 0.28604898 3.34385343 0.61781233 5 1 C3.68 1.33 2.36 1.66 1 2 C1 3.32 1 4.64 1 6 C2.65 5.67 4.3 5.34 6 5 C5.01 6.485 5.01 6.485 4 8 C2.35 7.67 0.7 7.34 -1 7 C-1.04254356 5.00045254 -1.04080783 2.99958364 -1 1 C-0.67 0.67 -0.34 0.34 0 0 Z " fill="#EDD9ED" transform="translate(152,164)"/>
<path d="M0 0 C3.48305042 0.64500934 6.06202164 2.04134776 9 4 C9 4.33 9 4.66 9 5 C3.375 5.25 3.375 5.25 0 3 C0 2.01 0 1.02 0 0 Z " fill="#F0DEF0" transform="translate(69,167)"/>
<path d="M0 0 C2.875 -0.1875 2.875 -0.1875 6 0 C6.66 0.99 7.32 1.98 8 3 C5.36 2.67 2.72 2.34 0 2 C-0.33 2.66 -0.66 3.32 -1 4 C-0.67 2.68 -0.34 1.36 0 0 Z " fill="#F8F0F8" transform="translate(73,158)"/>
</svg>
